<svg width="32" height="32" viewBox="0 0 32 32" fill="none" xmlns="http://www.w3.org/2000/svg">
<g id="file 1" clip-path="url(#clip0_623_823)">
<g id="Group">
<g id="Group_2">
<path id="Vector" d="M28.3077 9.3563H27.0769V3.77396C27.0769 1.69326 25.4203 0 23.3846 0H3.69231C1.65663 0 0 1.69326 0 3.77396V23.1941C0 25.2748 1.65663 26.9681 3.69231 26.9681H6.15387V28.226C6.15387 30.3067 7.8105 32 9.84619 32H28.3078C30.3434 32 32.0001 30.3067 32.0001 28.226V13.1303C32 11.0496 30.3434 9.3563 28.3077 9.3563ZM3.69231 24.4521C3.01419 24.4521 2.46156 23.8886 2.46156 23.1942V3.77402C2.46156 3.07963 3.01419 2.51606 3.69231 2.51606H23.3846C24.0627 2.51606 24.6154 3.07963 24.6154 3.77402V23.1942C24.6154 23.8886 24.0627 24.4521 23.3846 24.4521H3.69231ZM29.5384 28.2261C29.5384 28.9205 28.9858 29.4841 28.3077 29.4841H9.84612C9.168 29.4841 8.61537 28.9205 8.61537 28.2261V26.9681H23.3846C25.4203 26.9681 27.0769 25.2749 27.0769 23.1942V11.8723H28.3077C28.9858 11.8723 29.5384 12.4359 29.5384 13.1303V28.2261Z" fill="#407BFF"/>
</g>
</g>
<g id="Group_3">
<g id="Group_4">
<path id="Vector_2" d="M19.6924 9.23071H7.38468C6.70531 9.23071 6.15393 9.78084 6.15393 10.4615C6.15393 11.1421 6.70531 11.6922 7.38468 11.6922H19.6924C20.3717 11.6922 20.9231 11.1421 20.9231 10.4615C20.9231 9.7809 20.3717 9.23071 19.6924 9.23071Z" fill="#407BFF"/>
</g>
</g>
<g id="Group_5">
<g id="Group_6">
<path id="Vector_3" d="M17.2307 15.3845H9.8461C9.16673 15.3845 8.61536 15.9346 8.61536 16.6153C8.61536 17.2959 9.16673 17.846 9.8461 17.846H17.2307C17.9101 17.846 18.4615 17.2959 18.4615 16.6153C18.4615 15.9346 17.9102 15.3845 17.2307 15.3845Z" fill="#407BFF"/>
</g>
</g>
</g>
<defs>
<clipPath id="clip0_623_823">
<rect width="32" height="32" fill="white"/>
</clipPath>
</defs>
</svg>
