<svg width="24" height="24" viewBox="0 0 24 24" fill="none" xmlns="http://www.w3.org/2000/svg">
<g id="At Symbol">
<path id="Vector" d="M16 20.064C14.247 20.9337 12.2584 21.2084 10.3353 20.8464C8.41219 20.4845 6.65947 19.5056 5.34264 18.0581C4.02581 16.6106 3.21664 14.7734 3.0377 12.8247C2.85876 10.8761 3.31981 8.92217 4.35101 7.25907C5.3822 5.59596 6.92734 4.31425 8.75235 3.60812C10.5774 2.90199 12.5828 2.80992 14.4648 3.34584C16.3469 3.88177 18.003 5.01649 19.1822 6.57811C20.3615 8.13973 20.9996 10.0431 21 12V13.5C21 14.163 20.7366 14.7989 20.2678 15.2678C19.7989 15.7366 19.163 16 18.5 16C17.837 16 17.2011 15.7366 16.7322 15.2678C16.2634 14.7989 16 14.163 16 13.5V8M16 12C16 13.0609 15.5786 14.0783 14.8284 14.8284C14.0783 15.5786 13.0609 16 12 16C10.9391 16 9.92171 15.5786 9.17157 14.8284C8.42142 14.0783 7.99999 13.0609 7.99999 12C7.99999 10.9391 8.42142 9.92172 9.17157 9.17157C9.92171 8.42143 10.9391 8 12 8C13.0609 8 14.0783 8.42143 14.8284 9.17157C15.5786 9.92172 16 10.9391 16 12Z" stroke="black" stroke-width="2" stroke-linecap="round" stroke-linejoin="round"/>
</g>
</svg>
