<svg width="32" height="32" viewBox="0 0 32 32" fill="none" xmlns="http://www.w3.org/2000/svg">
<g id="stethoscope(1) 1" clip-path="url(#clip0_623_836)">
<g id="Group">
<g id="Group_2">
<path id="Vector" d="M32 14.6679C32 12.4644 30.2068 10.6712 28.0033 10.6712C25.7998 10.6712 24.0066 12.4644 24.0066 14.6679C24.0066 16.4104 25.1337 17.8799 26.6924 18.426C26.6777 18.506 26.6444 18.5792 26.6444 18.6645V23.9934C26.6444 26.9322 24.2544 29.3222 21.3156 29.3222H17.3189C14.38 29.3222 11.99 26.9322 11.99 23.9934C11.99 23.9201 11.9594 23.8562 11.9487 23.7855C12.6574 23.6004 13.3276 23.2793 13.8964 22.8037L15.1101 21.7899C19.0521 18.4913 21.3143 13.6527 21.3156 8.51161V6.67449C21.3156 4.47099 19.5224 2.6778 17.3189 2.6778H16.0133V1.34568C16.0133 0.608927 15.4165 0.0134277 14.6811 0.0134277C13.9457 0.0134277 13.3488 0.608927 13.3488 1.34568V3.87824C13.3435 3.92355 13.3222 3.96349 13.3222 4.01011C13.3222 4.05674 13.3435 4.09674 13.3488 4.14199V6.67455C13.3488 7.4113 13.9456 8.0068 14.6811 8.0068C15.4164 8.0068 16.0133 7.4113 16.0133 6.67455V5.3423H17.3189C18.0529 5.3423 18.6511 5.93911 18.6511 6.67455V8.51299C18.6498 12.8627 16.7354 16.9566 13.4022 19.7476L12.1899 20.7588C11.3452 21.4595 10.025 21.4635 9.17506 20.7548L7.95344 19.745C4.60281 16.962 2.67513 12.8654 2.66444 8.51299V6.67455C2.66444 5.93918 3.26262 5.3423 3.99669 5.3423H5.35556V6.67455C5.35556 7.4113 5.95237 8.0068 6.68781 8.0068C7.42319 8.0068 8.02006 7.4113 8.02006 6.67455V1.34568C8.02006 0.608927 7.42325 0.0134277 6.68781 0.0134277C5.95244 0.0134277 5.35556 0.608927 5.35556 1.34568V2.67793H3.99669C1.79319 2.67786 0 4.47105 0 6.67455V8.51699C0.0133125 13.6647 2.29006 18.5033 6.25212 21.7979L7.47244 22.8051C8.028 23.2687 8.67944 23.5845 9.3695 23.7736C9.3575 23.8469 9.32556 23.9148 9.32556 23.9934C9.32556 28.4017 12.9106 31.9867 17.3189 31.9867H21.3156C25.7239 31.9867 29.3089 28.4017 29.3089 23.9934V18.6645C29.3089 18.5859 29.2769 18.5167 29.2636 18.4407C30.8476 17.9105 32 16.4291 32 14.6679ZM28.0033 16.0001C27.2693 16.0001 26.6711 15.4033 26.6711 14.6679C26.6711 13.9324 27.2693 13.3356 28.0033 13.3356C28.7374 13.3356 29.3356 13.9324 29.3356 14.6679C29.3356 15.4033 28.7374 16.0001 28.0033 16.0001Z" fill="#407BFF"/>
</g>
</g>
</g>
<defs>
<clipPath id="clip0_623_836">
<rect width="32" height="32" fill="white"/>
</clipPath>
</defs>
</svg>
