<svg width="32" height="32" viewBox="0 0 32 32" fill="none" xmlns="http://www.w3.org/2000/svg">
<g id="pencil(1) 1" clip-path="url(#clip0_623_764)">
<g id="Group">
<g id="Group_2">
<path id="Vector" d="M29.9718 2.02848C27.2674 -0.675897 22.8672 -0.675772 20.1629 2.02848L0.366125 21.8252C0.134 22.0572 0.0025625 22.3752 0.0004375 22.7006C0.0004375 22.7035 0 22.7063 0 22.7092V30.7501C0 31.4405 0.559688 32.0002 1.25013 32.0002H9.29106C9.61606 32.0002 9.93875 31.8704 10.1751 31.634C10.8198 30.9893 29.6502 12.1589 29.9718 11.8372C32.6761 9.13298 32.6761 4.73279 29.9718 2.02848ZM2.50025 29.5V25.7273L6.273 29.5H2.50025ZM9.29106 28.9822L3.01806 22.7092L18.638 7.08923L20.8905 9.34173L12.4952 17.7371C12.0069 18.2253 12.0069 19.0168 12.4952 19.505C12.9834 19.9932 13.7749 19.9933 14.2632 19.505L22.6585 11.1097L24.911 13.3622L9.29106 28.9822ZM28.2038 10.0694L26.6789 11.5942L20.406 5.32129L21.9309 3.79642C23.6604 2.06692 26.4745 2.06704 28.2039 3.79642C29.9333 5.52586 29.9333 8.33992 28.2038 10.0694Z" fill="#407BFF"/>
</g>
</g>
</g>
<defs>
<clipPath id="clip0_623_764">
<rect width="32" height="32" fill="white"/>
</clipPath>
</defs>
</svg>
