<svg width="13" height="24" viewBox="0 0 13 24" fill="none" xmlns="http://www.w3.org/2000/svg">
<g id="Facebook" clip-path="url(#clip0_577_51)">
<path id="Vector" d="M12.962 0.173001V3.981H10.697C10.3967 3.94263 10.0918 3.96929 9.80277 4.05919C9.51376 4.14908 9.24747 4.3001 9.02198 4.502L9.02398 4.5C8.69983 4.95473 8.54682 5.50939 8.59198 6.066V6.058V8.784H12.821L12.261 13.054H8.59798V24H4.18098V13.053H0.500977V8.784H4.18098V5.639C4.13314 4.8794 4.24176 4.11806 4.50012 3.40215C4.75849 2.68624 5.16108 2.03099 5.68298 1.477L5.67998 1.48C6.21266 0.975257 6.84232 0.583984 7.53077 0.329919C8.21922 0.0758538 8.95211 -0.0357081 9.68498 0.00200075H9.67198C10.8103 -0.0167758 11.9484 0.0450454 13.078 0.187001L12.961 0.175001L12.962 0.173001Z" fill="white"/>
</g>
<defs>
<clipPath id="clip0_577_51">
<rect width="12" height="24" fill="white" transform="translate(0.5)"/>
</clipPath>
</defs>
</svg>
