<svg width="22" height="22" viewBox="0 0 22 22" fill="none" xmlns="http://www.w3.org/2000/svg">
<mask id="mask0_181_590" style="mask-type:luminance" maskUnits="userSpaceOnUse" x="0" y="0" width="22" height="22">
<path fill-rule="evenodd" clip-rule="evenodd" d="M0.0799866 0.000244141H21.3998V21.5052H0.0799866V0.000244141Z" fill="white"/>
</mask>
<g mask="url(#mask0_181_590)">
<path fill-rule="evenodd" clip-rule="evenodd" d="M12.2655 14.2913C13.5176 14.2913 14.5368 15.2643 14.5368 16.4603V19.5362C14.5368 19.7932 14.7511 19.9992 15.0256 20.0052H17.0079C18.5699 20.0052 19.8398 18.7993 19.8398 17.3173V8.59325C19.8325 8.08325 19.5798 7.60325 19.1461 7.28425L12.2894 2.02625C11.369 1.32525 10.0815 1.32525 9.15793 2.02825L2.34801 7.28225C1.89769 7.61125 1.64497 8.09125 1.63977 8.61025V17.3173C1.63977 18.7993 2.90961 20.0052 4.47169 20.0052H6.47265C6.75449 20.0052 6.98329 19.7902 6.98329 19.5262C6.98329 19.4682 6.99057 19.4102 7.00305 19.3552V16.4603C7.00305 15.2713 8.01601 14.2993 9.25881 14.2913H12.2655ZM17.0079 21.5053H15.0069C13.8608 21.4793 12.9768 20.6143 12.9768 19.5363V16.4603C12.9768 16.0913 12.6575 15.7913 12.2655 15.7913H9.26401C8.88025 15.7933 8.56305 16.0943 8.56305 16.4603V19.5263C8.56305 19.6013 8.55265 19.6733 8.53081 19.7413C8.41849 20.7313 7.53865 21.5053 6.47265 21.5053H4.47169C2.04953 21.5053 0.0797729 19.6262 0.0797729 17.3172V8.60325C0.0901729 7.60925 0.566493 6.69925 1.38913 6.10025L8.18553 0.85525C9.68209 -0.28475 11.7673 -0.28475 13.2607 0.85325L20.106 6.10325C20.9099 6.69225 21.3863 7.60025 21.3998 8.58225V17.3172C21.3998 19.6262 19.43 21.5053 17.0079 21.5053Z" fill="#ADADAD"/>
</g>
</svg>
