<svg width="22" height="22" viewBox="0 0 22 22" fill="none" xmlns="http://www.w3.org/2000/svg">
<g id="notification 1">
<g id="Group">
<g id="Group_2">
<path id="Vector" d="M19.021 18.099L16.9321 14.9487V7.8442C16.9321 4.77116 14.7246 2.22037 11.8594 1.78961V0.859375C11.8594 0.384742 11.4747 0 11 0C10.5254 0 10.1407 0.384742 10.1407 0.859375V1.78961C7.2755 2.22037 5.06793 4.77121 5.06793 7.8442V14.9487L2.97909 18.099C2.80417 18.3628 2.7884 18.7015 2.93814 18.9803C3.08785 19.2592 3.37879 19.4333 3.69534 19.4333H7.77148C8.14364 20.9079 9.45002 22 11.0001 22C12.5501 22 13.8565 20.9079 14.2286 19.4333H18.3048C18.6213 19.4333 18.9122 19.2593 19.062 18.9804C19.2117 18.7015 19.1959 18.3628 19.021 18.099ZM11.0001 20.2812C10.4053 20.2812 9.8846 19.9401 9.60397 19.4333H12.3961C12.1155 19.9401 11.5948 20.2812 11.0001 20.2812ZM5.29631 17.7146L6.64355 15.6826C6.73693 15.5419 6.78673 15.3767 6.78673 15.2078V7.8442C6.78673 5.41789 8.67684 3.4439 11.0001 3.4439C13.3233 3.4439 15.2134 5.41784 15.2134 7.8442V15.2077C15.2134 15.3767 15.2632 15.5418 15.3566 15.6826L16.7038 17.7145C16.1965 17.7146 5.51386 17.7146 5.29631 17.7146Z" fill="white"/>
</g>
</g>
</g>
</svg>
