<svg width="24" height="24" viewBox="0 0 24 24" fill="none" xmlns="http://www.w3.org/2000/svg">
<g id="Otp">
<path id="Vector" d="M9.9055 9.62609H14.0626M11.9841 9.62609V15.8618M16.1412 15.8618V12.3975M16.1412 12.3975V9.62609H17.5269C17.8944 9.62609 18.2469 9.77209 18.5068 10.032C18.7666 10.2918 18.9126 10.6443 18.9126 11.0118C18.9126 11.3793 18.7666 11.7318 18.5068 11.9917C18.2469 12.2515 17.8944 12.3975 17.5269 12.3975H16.1412ZM7.82693 11.0118V13.7832C7.82693 14.1507 7.68094 14.5032 7.42106 14.7631C7.16119 15.023 6.80873 15.1689 6.44122 15.1689C6.0737 15.1689 5.72124 15.023 5.46137 14.7631C5.2015 14.5032 5.0555 14.1507 5.0555 13.7832V11.0118C5.0555 10.6443 5.2015 10.2918 5.46137 10.032C5.72124 9.77209 6.0737 9.62609 6.44122 9.62609C6.80873 9.62609 7.16119 9.77209 7.42106 10.032C7.68094 10.2918 7.82693 10.6443 7.82693 11.0118ZM3.66979 2.69752H20.2984C20.6659 2.69752 21.0183 2.84352 21.2782 3.10339C21.5381 3.36326 21.6841 3.71572 21.6841 4.08324V20.7118C21.6841 21.0793 21.5381 21.4318 21.2782 21.6917C21.0183 21.9515 20.6659 22.0975 20.2984 22.0975H3.66979C3.30227 22.0975 2.94981 21.9515 2.68994 21.6917C2.43007 21.4318 2.28407 21.0793 2.28407 20.7118V4.08324C2.28407 3.71572 2.43007 3.36326 2.68994 3.10339C2.94981 2.84352 3.30227 2.69752 3.66979 2.69752Z" stroke="black" stroke-width="1.5"/>
</g>
</svg>
