<svg width="32" height="32" viewBox="0 0 32 32" fill="none" xmlns="http://www.w3.org/2000/svg">
<g id="clinic-history 1">
<g id="Group">
<g id="Group_2">
<path id="Vector" d="M29.0001 4H22.6667V1.33331C22.6667 0.597313 22.0707 0 21.3334 0H10.6667C9.92944 0 9.33344 0.597313 9.33344 1.33331V4H3.00006C2.26275 4 1.66675 4.59731 1.66675 5.33331V30.6666C1.66675 31.4027 2.26275 32 3.00006 32H29.0001C29.7374 32 30.3334 31.4027 30.3334 30.6667V5.33331C30.3334 4.59731 29.7374 4 29.0001 4ZM12.0001 2.66669H20.0001V6.66669H12.0001V2.66669ZM27.6667 29.3333H4.33337V6.66669H9.33337V8C9.33337 8.736 9.92937 9.33331 10.6667 9.33331H21.3334C22.0707 9.33331 22.6667 8.736 22.6667 8V6.66669H27.6667L27.6667 29.3333Z" fill="#407BFF"/>
</g>
</g>
<g id="Group_3">
<g id="Group_4">
<path id="Vector_2" d="M17.3334 17.3333V13.3333H14.6667V17.3333H10.6667V19.9999H14.6667V23.9999H17.3334V19.9999H21.3334V17.3333H17.3334Z" fill="#407BFF"/>
</g>
</g>
</g>
</svg>
