<svg width="32" height="32" viewBox="0 0 32 32" fill="none" xmlns="http://www.w3.org/2000/svg">
<g id="clipboard 1">
<g id="Group">
<g id="Group_2">
<path id="Vector" d="M22 14.3333H10.0001C9.26406 14.3333 8.66675 14.9293 8.66675 15.6666C8.66675 16.4039 9.26406 16.9999 10.0001 16.9999H22C22.736 16.9999 23.3334 16.4039 23.3334 15.6666C23.3334 14.9293 22.736 14.3333 22 14.3333Z" fill="#407BFF"/>
</g>
</g>
<g id="Group_3">
<g id="Group_4">
<path id="Vector_2" d="M22 21H10.0001C9.26406 21 8.66675 21.596 8.66675 22.3333C8.66675 23.0706 9.26406 23.6666 10.0001 23.6666H22C22.736 23.6666 23.3334 23.0706 23.3334 22.3333C23.3334 21.596 22.736 21 22 21Z" fill="#407BFF"/>
</g>
</g>
<g id="Group_5">
<g id="Group_6">
<path id="Vector_3" d="M25.6667 4H23.2654C22.9387 1.744 21.0107 0 18.6667 0H13.3334C10.9894 0 9.06137 1.744 8.73469 4H6.33337C4.12806 4 2.33337 5.79469 2.33337 8V28C2.33337 30.2053 4.12806 32 6.33337 32H25.6667C27.872 32 29.6667 30.2053 29.6667 28V8C29.6667 5.79469 27.872 4 25.6667 4ZM13.3333 2.66669H18.6666C19.7693 2.66669 20.6666 3.564 20.6666 4.66669C20.6666 5.76937 19.7693 6.66669 18.6666 6.66669H13.3333C12.2306 6.66669 11.3333 5.76937 11.3333 4.66669C11.3333 3.564 12.2307 2.66669 13.3333 2.66669ZM27 28C27 28.736 26.4013 29.3333 25.6667 29.3333H6.33331C5.59869 29.3333 5 28.736 5 28V8C5 7.264 5.59869 6.66669 6.33331 6.66669H9.13462C9.88662 8.23738 11.4786 9.33337 13.3333 9.33337H18.6666C20.5213 9.33337 22.1133 8.23738 22.8653 6.66669H25.6666C26.4013 6.66669 26.9999 7.264 26.9999 8L27 28Z" fill="#407BFF"/>
</g>
</g>
</g>
</svg>
